<?xml version="1.0" encoding="UTF-8" standalone="no"?>
<!-- Generator: Adobe Illustrator 22.0.1, SVG Export Plug-In . SVG Version: 6.00 Build 0)  -->

<svg
   version="1.1"
   id="Calque_1"
   x="0px"
   y="0px"
   viewBox="0 0 399.99999 503.04976"
   enable-background="new 0 0 1700.8 473.2"
   xml:space="preserve"
   sodipodi:docname="agepoly.svg"
   width="100%"
   height="100%"
   inkscape:version="1.2.2 (b0a8486541, 2022-12-01)"
   xmlns:inkscape="http://www.inkscape.org/namespaces/inkscape"
   xmlns:sodipodi="http://sodipodi.sourceforge.net/DTD/sodipodi-0.dtd"
   xmlns="http://www.w3.org/2000/svg"
   xmlns:svg="http://www.w3.org/2000/svg"><defs
   id="defs49" /><sodipodi:namedview
   id="namedview47"
   pagecolor="#ffffff"
   bordercolor="#000000"
   borderopacity="0.25"
   inkscape:showpageshadow="2"
   inkscape:pageopacity="0.0"
   inkscape:pagecheckerboard="0"
   inkscape:deskcolor="#d1d1d1"
   showgrid="false"
   inkscape:zoom="1.0842747"
   inkscape:cx="233.79684"
   inkscape:cy="370.75475"
   inkscape:window-width="2560"
   inkscape:window-height="1409"
   inkscape:window-x="0"
   inkscape:window-y="0"
   inkscape:window-maximized="1"
   inkscape:current-layer="g44" />
<g
   id="g44">
	<g
   id="g16"
   transform="matrix(0.32390044,0,0,0.32390044,-156.03137,364.93863)">
		<path
   fill="#e30513"
   d="m 571,338.6 c -16.4,0 -30.2,-5.7 -41.5,-17 -11.3,-11.3 -16.9,-25.2 -16.9,-41.6 0,-10.7 2.6,-20.5 7.7,-29.5 11,-19.4 27.9,-29.1 50.6,-29.1 h 58.3 v -28.9 c 0,-8.2 -2.8,-15 -8.4,-20.6 -5.6,-5.5 -12.5,-8.3 -20.7,-8.3 H 542 c -9.9,0 -14.8,-4.9 -14.8,-14.7 0,-9.8 4.9,-14.7 14.8,-14.7 h 58.3 c 16.3,0 30.1,5.6 41.4,16.9 11.3,11.3 16.9,25.1 16.9,41.5 V 324 c 0,9.7 -4.9,14.6 -14.6,14.6 z m 58.2,-87.7 h -58.3 c -8.1,0 -15,2.8 -20.6,8.5 -5.7,5.7 -8.5,12.6 -8.5,20.6 0,8 2.9,14.8 8.6,20.5 5.7,5.8 12.6,8.6 20.5,8.6 h 58.3 z"
   id="path2" />
		<path
   fill="#e30513"
   d="m 829.8,134.2 c 9.7,0 14.6,4.9 14.6,14.6 V 368 c 0,16.4 -5.6,30.2 -16.9,41.5 -11.3,11.3 -25.1,16.9 -41.4,16.9 h -58.3 c -9.9,0 -14.8,-4.9 -14.8,-14.7 0,-9.8 4.9,-14.7 14.8,-14.7 h 58.1 c 8.1,0 14.9,-2.8 20.6,-8.5 5.6,-5.7 8.5,-12.6 8.5,-20.7 v -29.2 h -58.3 c -22.7,0 -39.5,-9.7 -50.6,-29 -5.2,-9 -7.7,-18.8 -7.7,-29.4 v -87.6 c 0,-16.4 5.6,-30.2 16.9,-41.5 11.3,-11.3 25.1,-16.9 41.5,-16.9 z M 815,163.7 h -58.3 c -8.1,0 -15,2.8 -20.6,8.5 -5.7,5.7 -8.5,12.5 -8.5,20.6 v 87.3 c 0,7.9 2.9,14.8 8.6,20.5 5.7,5.7 12.6,8.6 20.5,8.6 H 815 Z"
   id="path4" />
		<path
   fill="#e30513"
   d="M 913.6,250.9 V 280 c 0,8 2.9,14.8 8.6,20.5 5.7,5.8 12.6,8.6 20.5,8.6 h 72.9 c 9.7,0 14.6,4.9 14.6,14.7 0,9.8 -4.9,14.7 -14.6,14.7 h -73 c -16.4,0 -30.2,-5.6 -41.5,-16.9 -11.3,-11.3 -16.9,-25.1 -16.9,-41.5 v -73 c 0,-20.2 7.1,-37.4 21.4,-51.6 14.2,-14.2 31.5,-21.3 51.7,-21.3 20.5,0 37.8,7 51.9,21.1 14.1,14.1 21.1,31.3 21.1,51.8 v 43.7 H 913.6 Z m 43.6,-87.2 c -12,0 -22.3,4.2 -30.8,12.7 -8.5,8.5 -12.8,18.7 -12.8,30.6 v 14.4 h 87.2 V 207 c 0,-12 -4.3,-22.2 -12.8,-30.6 -8.5,-8.5 -18.8,-12.7 -30.8,-12.7 z"
   id="path6" />
		<path
   fill="#e30513"
   d="m 1069.9,148.8 c 0,-9.7 4.9,-14.6 14.6,-14.6 h 73 c 16.4,0 30.2,5.6 41.5,16.9 11.3,11.3 16.9,25.1 16.9,41.5 v 87.6 c 0,16.2 -5.6,30 -16.9,41.4 -11.3,11.4 -25.1,17 -41.4,17 h -58.3 v 73.1 c 0,9.7 -4.9,14.6 -14.7,14.6 -9.8,0 -14.7,-4.9 -14.7,-14.6 z m 29.4,14.9 v 145.5 h 58.1 c 8.1,0 14.9,-2.8 20.6,-8.5 5.6,-5.7 8.5,-12.5 8.5,-20.6 v -87.3 c 0,-8.2 -2.8,-15.1 -8.4,-20.7 -5.6,-5.6 -12.5,-8.4 -20.7,-8.4 z"
   id="path8" />
		<path
   fill="#e30513"
   d="m 1255.7,265.6 v -58.4 c 0,-20.2 7.1,-37.4 21.4,-51.6 14.2,-14.2 31.5,-21.3 51.7,-21.3 20.5,0 37.8,7 51.9,21.1 14.1,14.1 21.1,31.4 21.1,51.9 v 58.4 c 0,20.2 -7.1,37.4 -21.4,51.6 -14.2,14.2 -31.5,21.3 -51.7,21.3 -20.2,0 -37.4,-7.1 -51.7,-21.3 -14.2,-14.2 -21.3,-31.5 -21.3,-51.7 z m 116.6,-0.1 v -58.2 c 0,-12 -4.3,-22.3 -12.8,-30.9 -8.5,-8.5 -18.8,-12.8 -30.8,-12.8 -12,0 -22.3,4.3 -30.8,12.8 -8.5,8.5 -12.8,18.8 -12.8,30.9 v 58.2 c 0,12.2 4.2,22.5 12.7,31 8.4,8.5 18.7,12.7 30.9,12.7 12,0 22.3,-4.3 30.8,-12.8 8.6,-8.5 12.8,-18.8 12.8,-30.9 z"
   id="path10" />
		<path
   fill="#e30513"
   d="m 1441.5,61.1 c 0,-9.7 4.9,-14.6 14.7,-14.6 9.8,0 14.7,4.9 14.7,14.6 v 233.7 c 0,7.5 4.8,12.4 14.5,14.6 9.6,2.2 14.5,7.1 14.5,14.6 0,9.7 -4.9,14.6 -14.6,14.6 -13.1,0 -23.7,-3.9 -31.7,-11.6 -8,-7.7 -12,-18.5 -12,-32.2 V 61.1 Z"
   id="path12" />
		<path
   fill="#e30513"
   d="m 1573,397 24.3,-73.2 -56.5,-170.3 c -0.7,-1.8 -1.1,-3.3 -1.1,-4.7 0,-9.7 4.9,-14.6 14.8,-14.6 7.2,0 11.9,3.3 14.2,9.9 l 44.2,133 44.2,-133 c 2.2,-6.6 6.9,-9.9 14,-9.9 9.8,0 14.7,4.9 14.7,14.6 0,1.3 -0.3,2.9 -0.8,4.7 l -87.4,262.7 c -2.2,6.7 -6.9,10.1 -13.9,10.1 h -29.4 c -9.7,0 -14.6,-4.9 -14.6,-14.7 0,-7.9 4,-12.6 12.1,-14.3 1.3,-0.2 8.4,-0.3 21.2,-0.3 z"
   id="path14" />
	</g>
	<g
   id="g42"
   transform="matrix(0.97946006,0,0,0.97946006,-70.000474,-18.611084)">
		
		
		<g
   id="g1315"
   transform="translate(50.504828,-29.398629)"><g
     id="g24">
			<path
   fill="#1475a1"
   d="m 291.6,208.7 m 0,0 c -18.1,18.1 -40.2,27.1 -66.2,27.1 -26,0 -48.2,-9 -66.5,-27.1 v 0 c 16.4,-18.1 40,-29.5 66.4,-29.5 26.3,0.1 50,11.4 66.3,29.5"
   id="path18" />
			<path
   fill="#1475a1"
   d="m 185.8,147.2 c -12.9,19.6 -27.7,32.1 -44.5,37.5 -6.5,-13 -9.8,-27.3 -9.8,-42.8 0,-26 9.1,-48.3 27.4,-66.8 15,-15.1 33,-24.1 53.9,-26.7 0,38.9 -9,71.8 -27,98.8 z"
   id="path20" />
			<path
   fill="#1475a1"
   d="m 237.8,48.4 c 20.8,2.7 38.8,11.6 53.9,26.8 18.2,18.6 27.4,40.9 27.4,66.8 0,15.5 -3.3,29.7 -9.8,42.8 -16.8,-5.5 -31.7,-18 -44.6,-37.5 -17.9,-27.1 -26.9,-60 -26.9,-98.9 z"
   id="path22" />
		</g><g
     id="g32">
			<path
   fill="#5fa5c1"
   d="m 243.9,356.1 m 0,0 c -6.6,-24.7 -3.5,-48.4 9.5,-70.9 13,-22.6 31.9,-37.3 56.7,-44.1 v 0 c 7.5,23.2 5.6,49.4 -7.6,72.2 -13.1,22.8 -34.8,37.7 -58.6,42.8"
   id="path26" />
			<path
   fill="#5fa5c1"
   d="m 350,295.1 c -10.5,-20.9 -14,-40 -10.3,-57.3 14.5,0.9 28.5,5.1 41.9,12.8 22.5,13 37.3,32 44.3,57 5.6,20.7 4.4,40.7 -3.7,60.1 -33.8,-19.4 -57.8,-43.6 -72.2,-72.6 z"
   id="path28" />
			<path
   fill="#5fa5c1"
   d="m 409.7,389.5 c -12.7,16.7 -29.4,27.9 -50.1,33.4 -25.2,6.5 -49.1,3.3 -71.6,-9.6 -13.4,-7.7 -24.1,-17.7 -32.2,-29.8 13.1,-11.9 31.4,-18.5 54.7,-19.9 32.4,-2.2 65.5,6.4 99.2,25.9 z"
   id="path30" />
		</g><g
     id="g40">
			<path
   fill="#b6d3db"
   d="m 139.9,241.1 m 0,0 c 24.7,6.6 43.6,21.2 56.6,43.7 13.1,22.5 16.4,46.3 9.9,71.2 v 0 c -23.9,-5.1 -45.6,-19.9 -58.8,-42.6 -13.1,-22.9 -15.1,-49.1 -7.7,-72.3"
   id="path34" />
			<path
   fill="#b6d3db"
   d="m 139.8,363.5 c 23.4,1.3 41.6,7.9 54.8,19.7 -8,12.2 -18.7,22.1 -32.1,29.9 -22.5,13 -46.3,16.3 -71.5,9.8 -20.7,-5.5 -37.4,-16.6 -50.2,-33.3 33.6,-19.4 66.6,-28.1 99,-26.1 z"
   id="path36" />
			<path
   fill="#b6d3db"
   d="m 28.2,368 c -8.1,-19.4 -9.4,-39.4 -3.9,-60.1 6.9,-25.1 21.6,-44.2 44.1,-57.2 13.4,-7.8 27.4,-12.1 41.9,-13 3.7,17.3 0.3,36.4 -10.1,57.4 -14.3,29.1 -38.3,53.4 -72,72.9 z"
   id="path38" />
		</g></g>
	</g>
</g>
</svg>
