<?xml version="1.0" encoding="UTF-8" standalone="no"?>
<svg
   width="300"
   height="400.00003"
   viewBox="0 0 300 400.00003"
   version="1.1"
   xml:space="preserve"
   style="clip-rule:evenodd;fill-rule:evenodd;stroke-linecap:round;stroke-linejoin:round"
   id="svg5691"
   sodipodi:docname="logo.svg"
   inkscape:version="1.2.2 (b0a8486541, 2022-12-01)"
   xmlns:inkscape="http://www.inkscape.org/namespaces/inkscape"
   xmlns:sodipodi="http://sodipodi.sourceforge.net/DTD/sodipodi-0.dtd"
   xmlns="http://www.w3.org/2000/svg"
   xmlns:svg="http://www.w3.org/2000/svg"><defs
     id="defs5695" /><sodipodi:namedview
     id="namedview5693"
     pagecolor="#505050"
     bordercolor="#ffffff"
     borderopacity="1"
     inkscape:showpageshadow="0"
     inkscape:pageopacity="0"
     inkscape:pagecheckerboard="1"
     inkscape:deskcolor="#505050"
     showgrid="false"
     inkscape:zoom="1.3783333"
     inkscape:cx="399.75816"
     inkscape:cy="291.65659"
     inkscape:window-width="1920"
     inkscape:window-height="980"
     inkscape:window-x="0"
     inkscape:window-y="27"
     inkscape:window-maximized="1"
     inkscape:current-layer="svg5691" /><g
     id="g5689"
     transform="matrix(0.93012354,0,0,0.9389096,-222.2932,-74.733328)"><g
       id="g5675"><path
         d="M 533.083,301.361 V 183.065 c -0.011,-10.542 -5.658,-20.311 -14.787,-25.581 L 414.787,98.336 c -9.139,-5.277 -20.435,-5.277 -29.574,0 l -103.509,59.148 c -9.129,5.27 -14.776,15.039 -14.787,25.581 v 118.296 c 0.011,10.542 5.658,20.31 14.787,25.581 l 103.509,59.148 c 9.139,5.277 20.435,5.277 29.574,0 l 103.509,-59.148 c 9.129,-5.271 14.776,-15.039 14.787,-25.581 z"
         style="fill:none;fill-rule:nonzero;stroke:#000000;stroke-width:29.57px"
         id="path5663" /><path
         d="M 333.459,127.022 400,165.469 466.541,127.022"
         style="fill:none;fill-rule:nonzero;stroke:#000000;stroke-width:29.57px;stroke-linecap:butt"
         id="path5665" /><path
         d="M 333.459,357.404 V 280.659 L 266.917,242.213"
         style="fill:none;fill-rule:nonzero;stroke:#000000;stroke-width:29.57px;stroke-linecap:butt"
         id="path5667" /><path
         d="M 270.91,167.687 400,242.361 529.09,167.687"
         style="fill:none;fill-rule:nonzero;stroke:#000000;stroke-width:29.57px;stroke-linecap:butt"
         id="path5669" /><path
         d="M 400,391.266 V 242.213"
         style="fill:none;fill-rule:nonzero;stroke:#000000;stroke-width:29.57px;stroke-linecap:butt"
         id="path5671" /><path
         d="m 454.321,227.276 24.84,-14.192 39.277,99.232 -24.286,13.876 -3.416,-8.993 -35.124,20.067 -3.415,12.897 -37.154,21.227 z m 27.721,68.074 -10.466,-31.116 -9.877,43.194 z"
         style="fill-rule:nonzero"
         id="path5673" /></g><g
       id="g5687"><path
         d="m 258.198,452.25 c 0.29,-0.765 1.023,-1.271 1.842,-1.271 2.571,0 8.093,0 10.389,0 0.622,0 1.179,0.385 1.4,0.966 2.353,6.204 15.351,40.471 18.931,49.911 0.207,0.546 0.133,1.159 -0.199,1.64 -0.332,0.481 -0.879,0.768 -1.463,0.768 H 275.55 c -0.392,0 -0.743,-0.245 -0.878,-0.613 -0.474,-1.293 -1.532,-4.181 -1.532,-4.181 h -16.138 c 0,0 -0.917,2.503 -1.426,3.891 -0.199,0.542 -0.715,0.903 -1.292,0.903 -2.743,0 -10.635,0 -14.123,0 -0.384,0 -0.743,-0.189 -0.961,-0.505 -0.218,-0.316 -0.267,-0.719 -0.131,-1.078 3.008,-7.931 16.41,-43.262 19.129,-50.431 z m 11.338,35.477 -4.465,-14.809 -4.443,14.809 z"
         style="fill-rule:nonzero"
         id="path5677" /><path
         d="m 310.574,450.979 c -0.457,0 -0.896,0.182 -1.22,0.505 -0.323,0.324 -0.505,0.763 -0.505,1.22 0,7.681 0,38.817 0,48.602 0,0.784 0.312,1.537 0.866,2.091 0.555,0.555 1.307,0.867 2.092,0.867 7.192,0 25.502,0 32.278,0 1.42,0 2.572,-1.152 2.572,-2.573 0,-2.614 0,-6.626 0,-9.13 0,-1.258 -1.02,-2.278 -2.278,-2.278 -5.258,0 -17.795,0 -17.795,0 v -37.154 c 0,-1.187 -0.963,-2.15 -2.15,-2.15 -3.559,0 -10.603,0 -13.86,0 z"
         style="fill-rule:nonzero"
         id="path5679" /><path
         d="m 358.858,477.661 c 0,-3.834 0.733,-7.456 2.197,-10.864 1.465,-3.409 3.462,-6.378 5.992,-8.908 2.529,-2.53 5.499,-4.527 8.907,-5.991 3.409,-1.465 7.03,-2.197 10.865,-2.197 3.834,0 7.456,0.732 10.864,2.197 3.409,1.464 6.378,3.461 8.908,5.991 2.529,2.53 4.527,5.499 5.991,8.908 1.465,3.408 2.197,7.03 2.197,10.864 0,3.835 -0.732,7.456 -2.197,10.865 -1.464,3.408 -3.462,6.377 -5.991,8.907 -2.53,2.53 -5.499,4.527 -8.908,5.992 -3.408,1.464 -7.03,2.197 -10.864,2.197 -3.835,0 -7.456,-0.733 -10.865,-2.197 -3.408,-1.465 -6.378,-3.462 -8.907,-5.992 -2.53,-2.53 -4.527,-5.499 -5.992,-8.907 -1.464,-3.409 -2.197,-7.03 -2.197,-10.865 z m 16.777,0 c 0,1.545 0.292,2.996 0.878,4.354 0.586,1.358 1.385,2.543 2.397,3.555 1.012,1.012 2.197,1.811 3.555,2.397 1.358,0.585 2.809,0.878 4.354,0.878 1.544,0 2.995,-0.293 4.354,-0.878 1.358,-0.586 2.543,-1.385 3.554,-2.397 1.012,-1.012 1.811,-2.197 2.397,-3.555 0.586,-1.358 0.879,-2.809 0.879,-4.354 0,-1.544 -0.293,-2.996 -0.879,-4.354 -0.586,-1.358 -1.385,-2.543 -2.397,-3.555 -1.011,-1.011 -2.196,-1.81 -3.554,-2.396 -1.359,-0.586 -2.81,-0.879 -4.354,-0.879 -1.545,0 -2.996,0.293 -4.354,0.879 -1.358,0.586 -2.543,1.385 -3.555,2.396 -1.012,1.012 -1.811,2.197 -2.397,3.555 -0.586,1.358 -0.878,2.81 -0.878,4.354 z"
         style="fill-rule:nonzero"
         id="path5681" /><path
         d="m 469.984,467.859 c -0.465,0.662 -1.37,0.839 -2.052,0.402 -0.708,-0.455 -1.519,-0.82 -2.425,-1.105 -1.438,-0.453 -2.849,-0.679 -4.234,-0.679 -1.544,0 -2.956,0.28 -4.234,0.839 -1.278,0.559 -2.383,1.331 -3.315,2.317 -0.932,0.985 -1.664,2.17 -2.197,3.555 -0.533,1.384 -0.799,2.875 -0.799,4.473 0,1.598 0.293,3.089 0.879,4.474 0.586,1.385 1.385,2.57 2.397,3.555 1.011,0.985 2.196,1.757 3.554,2.317 1.359,0.559 2.81,0.838 4.354,0.838 1.811,0 3.462,-0.386 4.953,-1.158 1.158,-0.599 2.187,-1.367 3.088,-2.303 0.138,-0.147 0.175,-0.361 0.096,-0.546 -0.08,-0.184 -0.262,-0.304 -0.463,-0.304 -0.675,-0.003 -1.542,-0.003 -2.264,-0.003 -0.376,0 -0.736,-0.149 -1.001,-0.414 -0.265,-0.265 -0.414,-0.625 -0.414,-1 0,-2.22 0,-6.483 0,-8.566 0,-0.319 0.127,-0.625 0.352,-0.851 0.226,-0.226 0.532,-0.353 0.852,-0.353 3.626,0 14.421,0 18.09,0 0.683,0 1.237,0.554 1.237,1.237 0,3.517 0,13.478 0,15.942 0,0.371 -0.098,0.735 -0.285,1.055 -1.166,1.987 -2.535,3.805 -4.109,5.453 -1.704,1.784 -3.608,3.315 -5.712,4.593 -2.104,1.278 -4.381,2.264 -6.83,2.956 -2.45,0.692 -4.98,1.039 -7.59,1.039 -3.834,0 -7.456,-0.719 -10.864,-2.157 -3.409,-1.438 -6.378,-3.409 -8.908,-5.912 -2.529,-2.503 -4.527,-5.459 -5.991,-8.867 -1.465,-3.409 -2.197,-7.084 -2.197,-11.025 0,-3.834 0.692,-7.456 2.077,-10.864 1.385,-3.409 3.289,-6.378 5.712,-8.908 2.423,-2.53 5.299,-4.527 8.628,-5.991 3.328,-1.465 6.91,-2.197 10.744,-2.197 2.983,0 5.566,0.293 7.749,0.879 2.184,0.585 4.021,1.251 5.513,1.997 1.18,0.572 2.229,1.181 3.145,1.825 0.707,0.512 0.872,1.497 0.369,2.212 -1.83,2.611 -6.063,8.628 -7.905,11.245 z"
         style="fill-rule:nonzero"
         id="path5683" /><path
         d="m 505.61,477.661 c 0,-3.834 0.733,-7.456 2.197,-10.864 1.465,-3.409 3.462,-6.378 5.992,-8.908 2.53,-2.53 5.499,-4.527 8.907,-5.991 3.409,-1.465 7.03,-2.197 10.865,-2.197 3.834,0 7.456,0.732 10.864,2.197 3.409,1.464 6.378,3.461 8.908,5.991 2.53,2.53 4.527,5.499 5.991,8.908 1.465,3.408 2.197,7.03 2.197,10.864 0,3.835 -0.732,7.456 -2.197,10.865 -1.464,3.408 -3.461,6.377 -5.991,8.907 -2.53,2.53 -5.499,4.527 -8.908,5.992 -3.408,1.464 -7.03,2.197 -10.864,2.197 -3.835,0 -7.456,-0.733 -10.865,-2.197 -3.408,-1.465 -6.377,-3.462 -8.907,-5.992 -2.53,-2.53 -4.527,-5.499 -5.992,-8.907 -1.464,-3.409 -2.197,-7.03 -2.197,-10.865 z m 16.777,0 c 0,1.545 0.293,2.996 0.878,4.354 0.586,1.358 1.385,2.543 2.397,3.555 1.012,1.012 2.197,1.811 3.555,2.397 1.358,0.585 2.809,0.878 4.354,0.878 1.544,0 2.996,-0.293 4.354,-0.878 1.358,-0.586 2.543,-1.385 3.555,-2.397 1.012,-1.012 1.81,-2.197 2.396,-3.555 0.586,-1.358 0.879,-2.809 0.879,-4.354 0,-1.544 -0.293,-2.996 -0.879,-4.354 -0.586,-1.358 -1.384,-2.543 -2.396,-3.555 -1.012,-1.011 -2.197,-1.81 -3.555,-2.396 -1.358,-0.586 -2.81,-0.879 -4.354,-0.879 -1.545,0 -2.996,0.293 -4.354,0.879 -1.358,0.586 -2.543,1.385 -3.555,2.396 -1.012,1.012 -1.811,2.197 -2.397,3.555 -0.585,1.358 -0.878,2.81 -0.878,4.354 z"
         style="fill-rule:nonzero"
         id="path5685" /></g></g></svg>
